<?xml version="1.0" encoding="UTF-8" standalone="no"?>
<!DOCTYPE svg PUBLIC "-//W3C//DTD SVG 1.1//EN"
        "http://www.w3.org/Graphics/SVG/1.1/DTD/svg11.dtd">
<!-- Generated by graphviz version 2.40.1 (20161225.0304)
 -->
<!-- Title: dependencies Pages: 1 -->
<svg width="504pt" height="211pt"
     viewBox="0.00 0.00 504.00 211.00" xmlns="http://www.w3.org/2000/svg">
    <g id="graph0" class="graph" transform="scale(1 1) rotate(0) translate(4 207)">
        <title>dependencies</title>
        <polygon fill="#ffffff" stroke="transparent" points="-4,4 -4,-207 500,-207 500,4 -4,4"/>
        <text text-anchor="start" x="227.0091" y="-42.4" font-family="sans-serif" font-weight="bold" font-size="14.00"
              fill="#000000">Legend
        </text>
        <polygon fill="#ffffb3" stroke="transparent" points="14,-10 14,-30 34,-30 34,-10 14,-10"/>
        <text text-anchor="start" x="37.629" y="-15.4" font-family="sans-serif" font-size="14.00" fill="#000000">&#160;Declarations</text>
        <polygon fill="#8dd3c7" stroke="transparent" points="127,-10 127,-30 147,-30 147,-10 127,-10"/>
        <text text-anchor="start" x="150.7251" y="-15.4" font-family="sans-serif" font-size="14.00" fill="#000000">
            &#160;Module
        </text>
        <polygon fill="#80b1d3" stroke="transparent" points="213,-10 213,-30 233,-30 233,-10 213,-10"/>
        <text text-anchor="start" x="236.7812" y="-15.4" font-family="sans-serif" font-size="14.00" fill="#000000">
            &#160;Bootstrap
        </text>
        <polygon fill="#fdb462" stroke="transparent" points="310,-10 310,-30 330,-30 330,-10 310,-10"/>
        <text text-anchor="start" x="333.6732" y="-15.4" font-family="sans-serif" font-size="14.00" fill="#000000">
            &#160;Providers
        </text>
        <polygon fill="#fb8072" stroke="transparent" points="406,-10 406,-30 426,-30 426,-10 406,-10"/>
        <text text-anchor="start" x="429.7258" y="-15.4" font-family="sans-serif" font-size="14.00" fill="#000000">
            &#160;Exports
        </text>
        <g id="clust1" class="cluster">
            <title>cluster_AuthModule</title>
            <polygon fill="none" stroke="#000000" stroke-dasharray="1,5"
                     points="46,-70 46,-195 450,-195 450,-70 46,-70"/>
        </g>
        <g id="clust3" class="cluster">
            <title>cluster_AuthModule_imports</title>
            <polygon fill="none" stroke="#000000" points="328,-78 328,-130 442,-130 442,-78 328,-78"/>
        </g>
        <g id="clust6" class="cluster">
            <title>cluster_AuthModule_providers</title>
            <polygon fill="none" stroke="#000000" points="54,-78 54,-130 320,-130 320,-78 54,-78"/>
        </g>
        <!-- SharedModule -->
        <g id="node1" class="node">
            <title>SharedModule</title>
            <polygon fill="#8dd3c7" stroke="#000000"
                     points="434.4231,-122 431.4231,-126 410.4231,-126 407.4231,-122 335.5769,-122 335.5769,-86 434.4231,-86 434.4231,-122"/>
            <text text-anchor="middle" x="385" y="-99.8" font-family="Times,serif" font-size="14.00" fill="#000000">
                SharedModule
            </text>
        </g>
        <!-- AuthModule -->
        <g id="node2" class="node">
            <title>AuthModule</title>
            <polygon fill="#8dd3c7" stroke="#000000"
                     points="296.5482,-187 293.5482,-191 272.5482,-191 269.5482,-187 209.4518,-187 209.4518,-151 296.5482,-151 296.5482,-187"/>
            <text text-anchor="middle" x="253" y="-164.8" font-family="Times,serif" font-size="14.00" fill="#000000">
                AuthModule
            </text>
        </g>
        <!-- SharedModule&#45;&gt;AuthModule -->
        <g id="edge1" class="edge">
            <title>SharedModule&#45;&gt;AuthModule</title>
            <path fill="none" stroke="#000000"
                  d="M385,-122.1061C385,-141.3391 385,-169 385,-169 385,-169 306.5876,-169 306.5876,-169"/>
            <polygon fill="#000000" stroke="#000000"
                     points="306.5876,-165.5001 296.5876,-169 306.5875,-172.5001 306.5876,-165.5001"/>
        </g>
        <!-- AuthService -->
        <g id="node3" class="node">
            <title>AuthService</title>
            <ellipse fill="#fdb462" stroke="#000000" cx="253" cy="-104" rx="59.1083" ry="18"/>
            <text text-anchor="middle" x="253" y="-99.8" font-family="Times,serif" font-size="14.00" fill="#000000">
                AuthService
            </text>
        </g>
        <!-- AuthService&#45;&gt;AuthModule -->
        <g id="edge2" class="edge">
            <title>AuthService&#45;&gt;AuthModule</title>
            <path fill="none" stroke="#000000" d="M253,-122.1061C253,-122.1061 253,-140.991 253,-140.991"/>
            <polygon fill="#000000" stroke="#000000"
                     points="249.5001,-140.9909 253,-150.991 256.5001,-140.991 249.5001,-140.9909"/>
        </g>
        <!-- JwtStrategy -->
        <g id="node4" class="node">
            <title>JwtStrategy</title>
            <ellipse fill="#fdb462" stroke="#000000" cx="119" cy="-104" rx="56.7561" ry="18"/>
            <text text-anchor="middle" x="119" y="-99.8" font-family="Times,serif" font-size="14.00" fill="#000000">
                JwtStrategy
            </text>
        </g>
        <!-- JwtStrategy&#45;&gt;AuthModule -->
        <g id="edge3" class="edge">
            <title>JwtStrategy&#45;&gt;AuthModule</title>
            <path fill="none" stroke="#000000"
                  d="M119,-122.1061C119,-141.3391 119,-169 119,-169 119,-169 199.1234,-169 199.1234,-169"/>
            <polygon fill="#000000" stroke="#000000"
                     points="199.1234,-172.5001 209.1234,-169 199.1234,-165.5001 199.1234,-172.5001"/>
        </g>
    </g>
</svg>
