<?xml version="1.0" encoding="UTF-8" standalone="no"?>
<!DOCTYPE svg PUBLIC "-//W3C//DTD SVG 1.1//EN"
        "http://www.w3.org/Graphics/SVG/1.1/DTD/svg11.dtd">
<!-- Generated by graphviz version 2.40.1 (20161225.0304)
 -->
<!-- Title: dependencies Pages: 1 -->
<svg width="1018pt" height="211pt"
     viewBox="0.00 0.00 1018.00 211.00" xmlns="http://www.w3.org/2000/svg">
    <g id="graph0" class="graph" transform="scale(1 1) rotate(0) translate(4 207)">
        <title>dependencies</title>
        <polygon fill="#ffffff" stroke="transparent" points="-4,4 -4,-207 1014,-207 1014,4 -4,4"/>
        <text text-anchor="start" x="484.0091" y="-42.4" font-family="sans-serif" font-weight="bold" font-size="14.00"
              fill="#000000">Legend
        </text>
        <polygon fill="#ffffb3" stroke="transparent" points="271,-10 271,-30 291,-30 291,-10 271,-10"/>
        <text text-anchor="start" x="294.629" y="-15.4" font-family="sans-serif" font-size="14.00" fill="#000000">&#160;Declarations</text>
        <polygon fill="#8dd3c7" stroke="transparent" points="384,-10 384,-30 404,-30 404,-10 384,-10"/>
        <text text-anchor="start" x="407.7251" y="-15.4" font-family="sans-serif" font-size="14.00" fill="#000000">
            &#160;Module
        </text>
        <polygon fill="#80b1d3" stroke="transparent" points="470,-10 470,-30 490,-30 490,-10 470,-10"/>
        <text text-anchor="start" x="493.7812" y="-15.4" font-family="sans-serif" font-size="14.00" fill="#000000">
            &#160;Bootstrap
        </text>
        <polygon fill="#fdb462" stroke="transparent" points="567,-10 567,-30 587,-30 587,-10 567,-10"/>
        <text text-anchor="start" x="590.6732" y="-15.4" font-family="sans-serif" font-size="14.00" fill="#000000">
            &#160;Providers
        </text>
        <polygon fill="#fb8072" stroke="transparent" points="663,-10 663,-30 683,-30 683,-10 663,-10"/>
        <text text-anchor="start" x="686.7258" y="-15.4" font-family="sans-serif" font-size="14.00" fill="#000000">
            &#160;Exports
        </text>
        <g id="clust1" class="cluster">
            <title>cluster_AppModule</title>
            <polygon fill="none" stroke="#000000" stroke-dasharray="1,5"
                     points="8,-70 8,-195 1002,-195 1002,-70 8,-70"/>
        </g>
        <g id="clust3" class="cluster">
            <title>cluster_AppModule_imports</title>
            <polygon fill="none" stroke="#000000" points="154,-78 154,-130 994,-130 994,-78 154,-78"/>
        </g>
        <g id="clust6" class="cluster">
            <title>cluster_AppModule_providers</title>
            <polygon fill="none" stroke="#000000" points="16,-78 16,-130 146,-130 146,-78 16,-78"/>
        </g>
        <!-- AccountModule -->
        <g id="node1" class="node">
            <title>AccountModule</title>
            <polygon fill="#8dd3c7" stroke="#000000"
                     points="986.4762,-122 983.4762,-126 962.4762,-126 959.4762,-122 879.5238,-122 879.5238,-86 986.4762,-86 986.4762,-122"/>
            <text text-anchor="middle" x="933" y="-99.8" font-family="Times,serif" font-size="14.00" fill="#000000">
                AccountModule
            </text>
        </g>
        <!-- AppModule -->
        <g id="node8" class="node">
            <title>AppModule</title>
            <polygon fill="#8dd3c7" stroke="#000000"
                     points="547.6571,-187 544.6571,-191 523.6571,-191 520.6571,-187 464.3429,-187 464.3429,-151 547.6571,-151 547.6571,-187"/>
            <text text-anchor="middle" x="506" y="-164.8" font-family="Times,serif" font-size="14.00" fill="#000000">
                AppModule
            </text>
        </g>
        <!-- AccountModule&#45;&gt;AppModule -->
        <g id="edge1" class="edge">
            <title>AccountModule&#45;&gt;AppModule</title>
            <path fill="none" stroke="#000000"
                  d="M933,-122.2921C933,-144.2057 933,-178 933,-178 933,-178 557.72,-178 557.72,-178"/>
            <polygon fill="#000000" stroke="#000000"
                     points="557.7201,-174.5001 547.72,-178 557.72,-181.5001 557.7201,-174.5001"/>
        </g>
        <!-- AuthModule -->
        <g id="node2" class="node">
            <title>AuthModule</title>
            <polygon fill="#8dd3c7" stroke="#000000"
                     points="861.5482,-122 858.5482,-126 837.5482,-126 834.5482,-122 774.4518,-122 774.4518,-86 861.5482,-86 861.5482,-122"/>
            <text text-anchor="middle" x="818" y="-99.8" font-family="Times,serif" font-size="14.00" fill="#000000">
                AuthModule
            </text>
        </g>
        <!-- AuthModule&#45;&gt;AppModule -->
        <g id="edge2" class="edge">
            <title>AuthModule&#45;&gt;AppModule</title>
            <path fill="none" stroke="#000000"
                  d="M818,-122.1061C818,-141.3391 818,-169 818,-169 818,-169 557.754,-169 557.754,-169"/>
            <polygon fill="#000000" stroke="#000000"
                     points="557.754,-165.5001 547.754,-169 557.7539,-172.5001 557.754,-165.5001"/>
        </g>
        <!-- CategoryModule -->
        <g id="node3" class="node">
            <title>CategoryModule</title>
            <polygon fill="#8dd3c7" stroke="#000000"
                     points="756.3669,-122 753.3669,-126 732.3669,-126 729.3669,-122 645.6331,-122 645.6331,-86 756.3669,-86 756.3669,-122"/>
            <text text-anchor="middle" x="701" y="-99.8" font-family="Times,serif" font-size="14.00" fill="#000000">
                CategoryModule
            </text>
        </g>
        <!-- CategoryModule&#45;&gt;AppModule -->
        <g id="edge3" class="edge">
            <title>CategoryModule&#45;&gt;AppModule</title>
            <path fill="none" stroke="#000000"
                  d="M701,-122.027C701,-138.3976 701,-160 701,-160 701,-160 557.8324,-160 557.8324,-160"/>
            <polygon fill="#000000" stroke="#000000"
                     points="557.8324,-156.5001 547.8324,-160 557.8324,-163.5001 557.8324,-156.5001"/>
        </g>
        <!-- CurrencyModule -->
        <g id="node4" class="node">
            <title>CurrencyModule</title>
            <polygon fill="#8dd3c7" stroke="#000000"
                     points="627.6374,-122 624.6374,-126 603.6374,-126 600.6374,-122 516.3626,-122 516.3626,-86 627.6374,-86 627.6374,-122"/>
            <text text-anchor="middle" x="572" y="-99.8" font-family="Times,serif" font-size="14.00" fill="#000000">
                CurrencyModule
            </text>
        </g>
        <!-- CurrencyModule&#45;&gt;AppModule -->
        <g id="edge4" class="edge">
            <title>CurrencyModule&#45;&gt;AppModule</title>
            <path fill="none" stroke="#000000"
                  d="M532.0049,-122.1061C532.0049,-122.1061 532.0049,-140.991 532.0049,-140.991"/>
            <polygon fill="#000000" stroke="#000000"
                     points="528.505,-140.9909 532.0049,-150.991 535.505,-140.991 528.505,-140.9909"/>
        </g>
        <!-- OperationModule -->
        <g id="node5" class="node">
            <title>OperationModule</title>
            <polygon fill="#8dd3c7" stroke="#000000"
                     points="497.5284,-122 494.5284,-126 473.5284,-126 470.5284,-122 382.4716,-122 382.4716,-86 497.5284,-86 497.5284,-122"/>
            <text text-anchor="middle" x="440" y="-99.8" font-family="Times,serif" font-size="14.00" fill="#000000">
                OperationModule
            </text>
        </g>
        <!-- OperationModule&#45;&gt;AppModule -->
        <g id="edge5" class="edge">
            <title>OperationModule&#45;&gt;AppModule</title>
            <path fill="none" stroke="#000000"
                  d="M480.9678,-122.1061C480.9678,-122.1061 480.9678,-140.991 480.9678,-140.991"/>
            <polygon fill="#000000" stroke="#000000"
                     points="477.4678,-140.9909 480.9678,-150.991 484.4678,-140.991 477.4678,-140.9909"/>
        </g>
        <!-- SharedModule -->
        <g id="node6" class="node">
            <title>SharedModule</title>
            <polygon fill="#8dd3c7" stroke="#000000"
                     points="364.4231,-122 361.4231,-126 340.4231,-126 337.4231,-122 265.5769,-122 265.5769,-86 364.4231,-86 364.4231,-122"/>
            <text text-anchor="middle" x="315" y="-99.8" font-family="Times,serif" font-size="14.00" fill="#000000">
                SharedModule
            </text>
        </g>
        <!-- SharedModule&#45;&gt;AppModule -->
        <g id="edge6" class="edge">
            <title>SharedModule&#45;&gt;AppModule</title>
            <path fill="none" stroke="#000000"
                  d="M315,-122.027C315,-138.3976 315,-160 315,-160 315,-160 454.0842,-160 454.0842,-160"/>
            <polygon fill="#000000" stroke="#000000"
                     points="454.0843,-163.5001 464.0842,-160 454.0842,-156.5001 454.0843,-163.5001"/>
        </g>
        <!-- UserModule -->
        <g id="node7" class="node">
            <title>UserModule</title>
            <polygon fill="#8dd3c7" stroke="#000000"
                     points="247.9762,-122 244.9762,-126 223.9762,-126 220.9762,-122 162.0238,-122 162.0238,-86 247.9762,-86 247.9762,-122"/>
            <text text-anchor="middle" x="205" y="-99.8" font-family="Times,serif" font-size="14.00" fill="#000000">
                UserModule
            </text>
        </g>
        <!-- UserModule&#45;&gt;AppModule -->
        <g id="edge7" class="edge">
            <title>UserModule&#45;&gt;AppModule</title>
            <path fill="none" stroke="#000000"
                  d="M205,-122.1061C205,-141.3391 205,-169 205,-169 205,-169 454.1472,-169 454.1472,-169"/>
            <polygon fill="#000000" stroke="#000000"
                     points="454.1473,-172.5001 464.1472,-169 454.1472,-165.5001 454.1473,-172.5001"/>
        </g>
        <!-- AppService -->
        <g id="node9" class="node">
            <title>AppService</title>
            <ellipse fill="#fdb462" stroke="#000000" cx="81" cy="-104" rx="56.7406" ry="18"/>
            <text text-anchor="middle" x="81" y="-99.8" font-family="Times,serif" font-size="14.00" fill="#000000">
                AppService
            </text>
        </g>
        <!-- AppService&#45;&gt;AppModule -->
        <g id="edge8" class="edge">
            <title>AppService&#45;&gt;AppModule</title>
            <path fill="none" stroke="#000000"
                  d="M81,-122.2921C81,-144.2057 81,-178 81,-178 81,-178 454.0862,-178 454.0862,-178"/>
            <polygon fill="#000000" stroke="#000000"
                     points="454.0863,-181.5001 464.0862,-178 454.0862,-174.5001 454.0863,-181.5001"/>
        </g>
    </g>
</svg>
