<?xml version="1.0" encoding="UTF-8" standalone="no"?>
<!DOCTYPE svg PUBLIC "-//W3C//DTD SVG 1.1//EN"
        "http://www.w3.org/Graphics/SVG/1.1/DTD/svg11.dtd">
<!-- Generated by graphviz version 2.40.1 (20161225.0304)
 -->
<!-- Title: dependencies Pages: 1 -->
<svg width="1439pt" height="355pt"
     viewBox="0.00 0.00 1439.00 355.00" xmlns="http://www.w3.org/2000/svg">
    <g id="graph0" class="graph" transform="scale(1 1) rotate(0) translate(4 351)">
        <title>dependencies</title>
        <polygon fill="#ffffff" stroke="transparent" points="-4,4 -4,-351 1435,-351 1435,4 -4,4"/>
        <text text-anchor="start" x="694.5091" y="-42.4" font-family="sans-serif" font-weight="bold" font-size="14.00"
              fill="#000000">Legend
        </text>
        <polygon fill="#ffffb3" stroke="transparent" points="481.5,-10 481.5,-30 501.5,-30 501.5,-10 481.5,-10"/>
        <text text-anchor="start" x="505.129" y="-15.4" font-family="sans-serif" font-size="14.00" fill="#000000">&#160;Declarations</text>
        <polygon fill="#8dd3c7" stroke="transparent" points="594.5,-10 594.5,-30 614.5,-30 614.5,-10 594.5,-10"/>
        <text text-anchor="start" x="618.2251" y="-15.4" font-family="sans-serif" font-size="14.00" fill="#000000">
            &#160;Module
        </text>
        <polygon fill="#80b1d3" stroke="transparent" points="680.5,-10 680.5,-30 700.5,-30 700.5,-10 680.5,-10"/>
        <text text-anchor="start" x="704.2812" y="-15.4" font-family="sans-serif" font-size="14.00" fill="#000000">
            &#160;Bootstrap
        </text>
        <polygon fill="#fdb462" stroke="transparent" points="777.5,-10 777.5,-30 797.5,-30 797.5,-10 777.5,-10"/>
        <text text-anchor="start" x="801.1732" y="-15.4" font-family="sans-serif" font-size="14.00" fill="#000000">
            &#160;Providers
        </text>
        <polygon fill="#fb8072" stroke="transparent" points="873.5,-10 873.5,-30 893.5,-30 893.5,-10 873.5,-10"/>
        <text text-anchor="start" x="897.2258" y="-15.4" font-family="sans-serif" font-size="14.00" fill="#000000">
            &#160;Exports
        </text>
        <g id="clust1" class="cluster">
            <title>cluster_AccountModule</title>
            <polygon fill="none" stroke="#000000" stroke-dasharray="1,5"
                     points="8,-146 8,-274 186,-274 186,-146 8,-146"/>
        </g>
        <g id="clust6" class="cluster">
            <title>cluster_AccountModule_providers</title>
            <polygon fill="none" stroke="#000000" points="16,-154 16,-206 178,-206 178,-154 16,-154"/>
        </g>
        <g id="clust7" class="cluster">
            <title>cluster_AppModule</title>
            <polygon fill="none" stroke="#000000" stroke-dasharray="1,5"
                     points="194,-146 194,-339 959,-339 959,-146 194,-146"/>
        </g>
        <g id="clust9" class="cluster">
            <title>cluster_AppModule_imports</title>
            <polygon fill="none" stroke="#000000" points="340,-154 340,-274 951,-274 951,-154 340,-154"/>
        </g>
        <g id="clust12" class="cluster">
            <title>cluster_AppModule_providers</title>
            <polygon fill="none" stroke="#000000" points="202,-222 202,-274 332,-274 332,-222 202,-222"/>
        </g>
        <g id="clust13" class="cluster">
            <title>cluster_AuthModule</title>
            <polygon fill="none" stroke="#000000" stroke-dasharray="1,5"
                     points="967,-146 967,-214 1249,-214 1249,-146 967,-146"/>
        </g>
        <g id="clust18" class="cluster">
            <title>cluster_AuthModule_providers</title>
            <polygon fill="none" stroke="#000000" points="975,-154 975,-206 1241,-206 1241,-154 975,-154"/>
        </g>
        <g id="clust19" class="cluster">
            <title>cluster_CategoryModule</title>
            <polygon fill="none" stroke="#000000" stroke-dasharray="1,5"
                     points="551,-70 551,-138 733,-138 733,-70 551,-70"/>
        </g>
        <g id="clust24" class="cluster">
            <title>cluster_CategoryModule_providers</title>
            <polygon fill="none" stroke="#000000" points="559,-78 559,-130 725,-130 725,-78 559,-78"/>
        </g>
        <g id="clust25" class="cluster">
            <title>cluster_CurrencyModule</title>
            <polygon fill="none" stroke="#000000" stroke-dasharray="1,5"
                     points="741,-70 741,-138 925,-138 925,-70 741,-70"/>
        </g>
        <g id="clust30" class="cluster">
            <title>cluster_CurrencyModule_providers</title>
            <polygon fill="none" stroke="#000000" points="749,-78 749,-130 917,-130 917,-78 749,-78"/>
        </g>
        <g id="clust31" class="cluster">
            <title>cluster_OperationModule</title>
            <polygon fill="none" stroke="#000000" stroke-dasharray="1,5"
                     points="933,-70 933,-138 1123,-138 1123,-70 933,-70"/>
        </g>
        <g id="clust36" class="cluster">
            <title>cluster_OperationModule_providers</title>
            <polygon fill="none" stroke="#000000" points="941,-78 941,-130 1115,-130 1115,-78 941,-78"/>
        </g>
        <g id="clust37" class="cluster">
            <title>cluster_SettingModule</title>
            <polygon fill="none" stroke="#000000" stroke-dasharray="1,5"
                     points="1257,-70 1257,-206 1423,-206 1423,-70 1257,-70"/>
        </g>
        <g id="clust42" class="cluster">
            <title>cluster_SettingModule_providers</title>
            <polygon fill="none" stroke="#000000" points="1265,-78 1265,-130 1415,-130 1415,-78 1265,-78"/>
        </g>
        <g id="clust43" class="cluster">
            <title>cluster_SharedModule</title>
            <polygon fill="none" stroke="#000000" stroke-dasharray="1,5"
                     points="283,-70 283,-138 543,-138 543,-70 283,-70"/>
        </g>
        <g id="clust46" class="cluster">
            <title>cluster_SharedModule_exports</title>
            <polygon fill="none" stroke="#000000" points="431,-78 431,-130 535,-130 535,-78 431,-78"/>
        </g>
        <g id="clust48" class="cluster">
            <title>cluster_SharedModule_providers</title>
            <polygon fill="none" stroke="#000000" points="291,-78 291,-130 423,-130 423,-78 291,-78"/>
        </g>
        <!-- AccountService -->
        <g id="node1" class="node">
            <title>AccountService</title>
            <ellipse fill="#fdb462" stroke="#000000" cx="97" cy="-180" rx="72.9121" ry="18"/>
            <text text-anchor="middle" x="97" y="-175.8" font-family="Times,serif" font-size="14.00" fill="#000000">
                AccountService
            </text>
        </g>
        <!-- AccountModule -->
        <g id="node2" class="node">
            <title>AccountModule</title>
            <polygon fill="#8dd3c7" stroke="#000000"
                     points="164.4762,-266 161.4762,-270 140.4762,-270 137.4762,-266 57.5238,-266 57.5238,-230 164.4762,-230 164.4762,-266"/>
            <text text-anchor="middle" x="111" y="-243.8" font-family="Times,serif" font-size="14.00" fill="#000000">
                AccountModule
            </text>
        </g>
        <!-- AccountService&#45;&gt;AccountModule -->
        <g id="edge1" class="edge">
            <title>AccountService&#45;&gt;AccountModule</title>
            <path fill="none" stroke="#000000" d="M111,-197.8662C111,-197.8662 111,-219.5422 111,-219.5422"/>
            <polygon fill="#000000" stroke="#000000"
                     points="107.5001,-219.5421 111,-229.5422 114.5001,-219.5422 107.5001,-219.5421"/>
        </g>
        <!-- AppModule -->
        <g id="node9" class="node">
            <title>AppModule</title>
            <polygon fill="#8dd3c7" stroke="#000000"
                     points="595.6571,-331 592.6571,-335 571.6571,-335 568.6571,-331 512.3429,-331 512.3429,-295 595.6571,-295 595.6571,-331"/>
            <text text-anchor="middle" x="554" y="-308.8" font-family="Times,serif" font-size="14.00" fill="#000000">
                AppModule
            </text>
        </g>
        <!-- AccountModule&#45;&gt;AppModule -->
        <g id="edge2" class="edge">
            <title>AccountModule&#45;&gt;AppModule</title>
            <path fill="none" stroke="#000000"
                  d="M111,-266.2843C111,-287.3211 111,-319 111,-319 111,-319 502.3236,-319 502.3236,-319"/>
            <polygon fill="#000000" stroke="#000000"
                     points="502.3237,-322.5001 512.3236,-319 502.3236,-315.5001 502.3237,-322.5001"/>
        </g>
        <!-- AuthModule -->
        <g id="node3" class="node">
            <title>AuthModule</title>
            <polygon fill="#8dd3c7" stroke="#000000"
                     points="924.5482,-266 921.5482,-270 900.5482,-270 897.5482,-266 837.4518,-266 837.4518,-230 924.5482,-230 924.5482,-266"/>
            <text text-anchor="middle" x="881" y="-243.8" font-family="Times,serif" font-size="14.00" fill="#000000">
                AuthModule
            </text>
        </g>
        <!-- AuthModule&#45;&gt;AppModule -->
        <g id="edge3" class="edge">
            <title>AuthModule&#45;&gt;AppModule</title>
            <path fill="none" stroke="#000000"
                  d="M837.2642,-248C755.2927,-248 586.741,-248 586.741,-248 586.741,-248 586.741,-284.8939 586.741,-284.8939"/>
            <polygon fill="#000000" stroke="#000000"
                     points="583.2411,-284.8938 586.741,-294.8939 590.2411,-284.8939 583.2411,-284.8938"/>
        </g>
        <!-- CategoryModule -->
        <g id="node4" class="node">
            <title>CategoryModule</title>
            <polygon fill="#8dd3c7" stroke="#000000"
                     points="679.3669,-198 676.3669,-202 655.3669,-202 652.3669,-198 568.6331,-198 568.6331,-162 679.3669,-162 679.3669,-198"/>
            <text text-anchor="middle" x="624" y="-175.8" font-family="Times,serif" font-size="14.00" fill="#000000">
                CategoryModule
            </text>
        </g>
        <!-- CategoryModule&#45;&gt;AppModule -->
        <g id="edge4" class="edge">
            <title>CategoryModule&#45;&gt;AppModule</title>
            <path fill="none" stroke="#000000"
                  d="M577.6538,-198.2142C577.6538,-198.2142 577.6538,-284.579 577.6538,-284.579"/>
            <polygon fill="#000000" stroke="#000000"
                     points="574.1539,-284.5789 577.6538,-294.579 581.1539,-284.579 574.1539,-284.5789"/>
        </g>
        <!-- CurrencyModule -->
        <g id="node5" class="node">
            <title>CurrencyModule</title>
            <polygon fill="#8dd3c7" stroke="#000000"
                     points="808.6374,-198 805.6374,-202 784.6374,-202 781.6374,-198 697.3626,-198 697.3626,-162 808.6374,-162 808.6374,-198"/>
            <text text-anchor="middle" x="753" y="-175.8" font-family="Times,serif" font-size="14.00" fill="#000000">
                CurrencyModule
            </text>
        </g>
        <!-- CurrencyModule&#45;&gt;AppModule -->
        <g id="edge5" class="edge">
            <title>CurrencyModule&#45;&gt;AppModule</title>
            <path fill="none" stroke="#000000"
                  d="M753,-198.196C753,-233.3126 753,-307 753,-307 753,-307 605.7169,-307 605.7169,-307"/>
            <polygon fill="#000000" stroke="#000000"
                     points="605.717,-303.5001 595.7169,-307 605.7169,-310.5001 605.717,-303.5001"/>
        </g>
        <!-- OperationModule -->
        <g id="node6" class="node">
            <title>OperationModule</title>
            <polygon fill="#8dd3c7" stroke="#000000"
                     points="942.5284,-198 939.5284,-202 918.5284,-202 915.5284,-198 827.4716,-198 827.4716,-162 942.5284,-162 942.5284,-198"/>
            <text text-anchor="middle" x="885" y="-175.8" font-family="Times,serif" font-size="14.00" fill="#000000">
                OperationModule
            </text>
        </g>
        <!-- OperationModule&#45;&gt;AppModule -->
        <g id="edge6" class="edge">
            <title>OperationModule&#45;&gt;AppModule</title>
            <path fill="none" stroke="#000000"
                  d="M832.2314,-198.1718C832.2314,-235.8494 832.2314,-319 832.2314,-319 832.2314,-319 605.9553,-319 605.9553,-319"/>
            <polygon fill="#000000" stroke="#000000"
                     points="605.9553,-315.5001 595.9553,-319 605.9553,-322.5001 605.9553,-315.5001"/>
        </g>
        <!-- SharedModule -->
        <g id="node7" class="node">
            <title>SharedModule</title>
            <polygon fill="#8dd3c7" stroke="#000000"
                     points="550.4231,-198 547.4231,-202 526.4231,-202 523.4231,-198 451.5769,-198 451.5769,-162 550.4231,-162 550.4231,-198"/>
            <text text-anchor="middle" x="501" y="-175.8" font-family="Times,serif" font-size="14.00" fill="#000000">
                SharedModule
            </text>
        </g>
        <!-- SharedModule&#45;&gt;AuthModule -->
        <g id="edge10" class="edge">
            <title>SharedModule&#45;&gt;AuthModule</title>
            <path fill="none" stroke="#000000"
                  d="M540.7013,-198.0225C540.7013,-215.3734 540.7013,-239 540.7013,-239 540.7013,-239 827.2086,-239 827.2086,-239"/>
            <polygon fill="#000000" stroke="#000000"
                     points="827.2086,-242.5001 837.2086,-239 827.2085,-235.5001 827.2086,-242.5001"/>
        </g>
        <!-- SharedModule&#45;&gt;AppModule -->
        <g id="edge7" class="edge">
            <title>SharedModule&#45;&gt;AppModule</title>
            <path fill="none" stroke="#000000"
                  d="M531.1915,-198.2142C531.1915,-198.2142 531.1915,-284.579 531.1915,-284.579"/>
            <polygon fill="#000000" stroke="#000000"
                     points="527.6915,-284.5789 531.1915,-294.579 534.6915,-284.579 527.6915,-284.5789"/>
        </g>
        <!-- UserService  -->
        <g id="node18" class="node">
            <title>UserService</title>
            <polygon fill="#fb8072" stroke="#000000"
                     points="526.9041,-122 439.0959,-122 439.0959,-86 526.9041,-86 526.9041,-122"/>
            <text text-anchor="middle" x="483" y="-99.8" font-family="Times,serif" font-size="14.00" fill="#000000">
                UserService
            </text>
        </g>
        <!-- SharedModule&#45;&gt;UserService  -->
        <g id="edge17" class="edge">
            <title>SharedModule&#45;&gt;UserService</title>
            <path fill="none" stroke="#000000" stroke-dasharray="5,2"
                  d="M501.8976,-161.9891C501.8976,-161.9891 501.8976,-132.145 501.8976,-132.145"/>
            <polygon fill="#000000" stroke="#000000"
                     points="505.3977,-132.145 501.8976,-122.145 498.3977,-132.1451 505.3977,-132.145"/>
        </g>
        <!-- UserModule -->
        <g id="node8" class="node">
            <title>UserModule</title>
            <polygon fill="#8dd3c7" stroke="#000000"
                     points="433.9762,-198 430.9762,-202 409.9762,-202 406.9762,-198 348.0238,-198 348.0238,-162 433.9762,-162 433.9762,-198"/>
            <text text-anchor="middle" x="391" y="-175.8" font-family="Times,serif" font-size="14.00" fill="#000000">
                UserModule
            </text>
        </g>
        <!-- UserModule&#45;&gt;AppModule -->
        <g id="edge8" class="edge">
            <title>UserModule&#45;&gt;AppModule</title>
            <path fill="none" stroke="#000000"
                  d="M391,-198.196C391,-233.3126 391,-307 391,-307 391,-307 502.0234,-307 502.0234,-307"/>
            <polygon fill="#000000" stroke="#000000"
                     points="502.0235,-310.5001 512.0234,-307 502.0234,-303.5001 502.0235,-310.5001"/>
        </g>
        <!-- AppService -->
        <g id="node10" class="node">
            <title>AppService</title>
            <ellipse fill="#fdb462" stroke="#000000" cx="267" cy="-248" rx="56.7406" ry="18"/>
            <text text-anchor="middle" x="267" y="-243.8" font-family="Times,serif" font-size="14.00" fill="#000000">
                AppService
            </text>
        </g>
        <!-- AppService&#45;&gt;AppModule -->
        <g id="edge9" class="edge">
            <title>AppService&#45;&gt;AppModule</title>
            <path fill="none" stroke="#000000"
                  d="M316.1052,-257C390.1127,-257 521.6816,-257 521.6816,-257 521.6816,-257 521.6816,-284.973 521.6816,-284.973"/>
            <polygon fill="#000000" stroke="#000000"
                     points="518.1817,-284.973 521.6816,-294.973 525.1817,-284.973 518.1817,-284.973"/>
        </g>
        <!-- AuthService -->
        <g id="node11" class="node">
            <title>AuthService</title>
            <ellipse fill="#fdb462" stroke="#000000" cx="1174" cy="-180" rx="59.1083" ry="18"/>
            <text text-anchor="middle" x="1174" y="-175.8" font-family="Times,serif" font-size="14.00" fill="#000000">
                AuthService
            </text>
        </g>
        <!-- AuthService&#45;&gt;AuthModule -->
        <g id="edge11" class="edge">
            <title>AuthService&#45;&gt;AuthModule</title>
            <path fill="none" stroke="#000000"
                  d="M1174,-198.2921C1174,-220.2057 1174,-254 1174,-254 1174,-254 934.5487,-254 934.5487,-254"/>
            <polygon fill="#000000" stroke="#000000"
                     points="934.5487,-250.5001 924.5487,-254 934.5486,-257.5001 934.5487,-250.5001"/>
        </g>
        <!-- JwtStrategy -->
        <g id="node12" class="node">
            <title>JwtStrategy</title>
            <ellipse fill="#fdb462" stroke="#000000" cx="1040" cy="-180" rx="56.7561" ry="18"/>
            <text text-anchor="middle" x="1040" y="-175.8" font-family="Times,serif" font-size="14.00" fill="#000000">
                JwtStrategy
            </text>
        </g>
        <!-- JwtStrategy&#45;&gt;AuthModule -->
        <g id="edge12" class="edge">
            <title>JwtStrategy&#45;&gt;AuthModule</title>
            <path fill="none" stroke="#000000"
                  d="M1040,-198.2667C1040,-216.5552 1040,-242 1040,-242 1040,-242 934.8683,-242 934.8683,-242"/>
            <polygon fill="#000000" stroke="#000000"
                     points="934.8684,-238.5001 924.8683,-242 934.8683,-245.5001 934.8684,-238.5001"/>
        </g>
        <!-- CategoryService -->
        <g id="node13" class="node">
            <title>CategoryService</title>
            <ellipse fill="#fdb462" stroke="#000000" cx="642" cy="-104" rx="75.279" ry="18"/>
            <text text-anchor="middle" x="642" y="-99.8" font-family="Times,serif" font-size="14.00" fill="#000000">
                CategoryService
            </text>
        </g>
        <!-- CategoryService&#45;&gt;CategoryModule -->
        <g id="edge13" class="edge">
            <title>CategoryService&#45;&gt;CategoryModule</title>
            <path fill="none" stroke="#000000" d="M624,-121.627C624,-121.627 624,-151.9409 624,-151.9409"/>
            <polygon fill="#000000" stroke="#000000"
                     points="620.5001,-151.9408 624,-161.9409 627.5001,-151.9409 620.5001,-151.9408"/>
        </g>
        <!-- CurrencyService -->
        <g id="node14" class="node">
            <title>CurrencyService</title>
            <ellipse fill="#fdb462" stroke="#000000" cx="833" cy="-104" rx="75.8412" ry="18"/>
            <text text-anchor="middle" x="833" y="-99.8" font-family="Times,serif" font-size="14.00" fill="#000000">
                CurrencyService
            </text>
        </g>
        <!-- CurrencyService&#45;&gt;CurrencyModule -->
        <g id="edge14" class="edge">
            <title>CurrencyService&#45;&gt;CurrencyModule</title>
            <path fill="none" stroke="#000000"
                  d="M782.9489,-117.5873C782.9489,-117.5873 782.9489,-151.9574 782.9489,-151.9574"/>
            <polygon fill="#000000" stroke="#000000"
                     points="779.449,-151.9574 782.9489,-161.9574 786.449,-151.9575 779.449,-151.9574"/>
        </g>
        <!-- OperationService -->
        <g id="node15" class="node">
            <title>OperationService</title>
            <ellipse fill="#fdb462" stroke="#000000" cx="1028" cy="-104" rx="78.7086" ry="18"/>
            <text text-anchor="middle" x="1028" y="-99.8" font-family="Times,serif" font-size="14.00" fill="#000000">
                OperationService
            </text>
        </g>
        <!-- OperationService&#45;&gt;OperationModule -->
        <g id="edge15" class="edge">
            <title>OperationService&#45;&gt;OperationModule</title>
            <path fill="none" stroke="#000000"
                  d="M949.2792,-104C935.6942,-104 925.8421,-104 925.8421,-104 925.8421,-104 925.8421,-151.9891 925.8421,-151.9891"/>
            <polygon fill="#000000" stroke="#000000"
                     points="922.3422,-151.989 925.8421,-161.9891 929.3422,-151.9891 922.3422,-151.989"/>
        </g>
        <!-- SettingService -->
        <g id="node16" class="node">
            <title>SettingService</title>
            <ellipse fill="#fdb462" stroke="#000000" cx="1340" cy="-104" rx="67.21" ry="18"/>
            <text text-anchor="middle" x="1340" y="-99.8" font-family="Times,serif" font-size="14.00" fill="#000000">
                SettingService
            </text>
        </g>
        <!-- SettingModule -->
        <g id="node17" class="node">
            <title>SettingModule</title>
            <polygon fill="#8dd3c7" stroke="#000000"
                     points="1389.719,-198 1386.719,-202 1365.719,-202 1362.719,-198 1290.281,-198 1290.281,-162 1389.719,-162 1389.719,-198"/>
            <text text-anchor="middle" x="1340" y="-175.8" font-family="Times,serif" font-size="14.00" fill="#000000">
                SettingModule
            </text>
        </g>
        <!-- SettingService&#45;&gt;SettingModule -->
        <g id="edge16" class="edge">
            <title>SettingService&#45;&gt;SettingModule</title>
            <path fill="none" stroke="#000000" d="M1340,-122.0109C1340,-122.0109 1340,-151.855 1340,-151.855"/>
            <polygon fill="#000000" stroke="#000000"
                     points="1336.5001,-151.8549 1340,-161.855 1343.5001,-151.855 1336.5001,-151.8549"/>
        </g>
        <!-- UserService -->
        <g id="node19" class="node">
            <title>UserService</title>
            <ellipse fill="#fdb462" stroke="#000000" cx="357" cy="-104" rx="58.4415" ry="18"/>
            <text text-anchor="middle" x="357" y="-99.8" font-family="Times,serif" font-size="14.00" fill="#000000">
                UserService
            </text>
        </g>
        <!-- UserService&#45;&gt;SharedModule -->
        <g id="edge18" class="edge">
            <title>UserService&#45;&gt;SharedModule</title>
            <path fill="none" stroke="#000000"
                  d="M392.8175,-118.5831C392.8175,-129.2993 392.8175,-142 392.8175,-142 392.8175,-142 476.8433,-142 476.8433,-142 476.8433,-142 476.8433,-151.8903 476.8433,-151.8903"/>
            <polygon fill="#000000" stroke="#000000"
                     points="473.3434,-151.8903 476.8433,-161.8903 480.3434,-151.8904 473.3434,-151.8903"/>
        </g>
        <!-- UserService&#45;&gt;UserModule -->
        <g id="edge19" class="edge">
            <title>UserService&#45;&gt;UserModule</title>
            <path fill="none" stroke="#000000"
                  d="M370.4147,-121.627C370.4147,-121.627 370.4147,-151.9409 370.4147,-151.9409"/>
            <polygon fill="#000000" stroke="#000000"
                     points="366.9148,-151.9408 370.4147,-161.9409 373.9148,-151.9409 366.9148,-151.9408"/>
        </g>
    </g>
</svg>
